<svg xmlns="http://www.w3.org/2000/svg" xmlns:xlink="http://www.w3.org/1999/xlink" width="100" height="100" viewBox="0 0 100 100">
  <defs>
    <clipPath id="clip-path">
      <rect id="Rectangle_90" data-name="Rectangle 90" width="100" height="100" fill="none"/>
    </clipPath>
  </defs>
  <g id="Group_113" data-name="Group 113" transform="translate(4)">
    <g id="Group_112" data-name="Group 112" transform="translate(-4)" clip-path="url(#clip-path)">
      <path id="Path_90" data-name="Path 90" d="M100,50A50,50,0,1,1,50,0a50,50,0,0,1,50,50" fill="#d6e0ec"/>
      <path id="Path_91" data-name="Path 91" d="M95.23,58.456a.562.562,0,0,0-.515.257,1.922,1.922,0,0,1-1.761.988c-.9-.087-1.417-1.073-1.417-2.791,0-1.031.044-11.936.087-15.156a.867.867,0,0,0-1.074-.729l-8.414,1.717a.944.944,0,0,0-.817.859V54.42c-.129,2.662-1.5,4.937-3.992,5.023-2.748.129-4.121-1.761-4.121-5.28,0-2.118.036-4.236.036-6.355,0-5.152-4.938-7.513-9.146-7.427-5.581.043-7.6,3.005-8.415,4.937-1.287-3.392-5.237-5.023-8.758-4.937-5.066.043-7.17,2.533-8.156,4.422L37.435,41.54a.854.854,0,0,0-1.031-.473l-6.782,2.3a.5.5,0,0,0-.067.016c-2.132-1.755-6.279-2.855-10.366-2.912-7.212-.13-12.665,2.318-12.922,6.482-.129,3.564,3.477,5.281,5.28,6.226,1.8.859,7.041,3.134,8.586,3.821,1.5.73,3.307,1.632,3.307,2.962,0,1.5-2.319,2.276-5.066,1.932-3.092-.472-3.907-1.674-4.422-3.306a4.783,4.783,0,0,0-4.981-3.778c-1.932,0-3.434,1.16-3.349,2.963.172,3.606,6.268,5.795,13.395,5.924a22.41,22.41,0,0,0,9.79-1.779,1.363,1.363,0,0,0,1.458,1.221h7.127a1.4,1.4,0,0,0,1.5-1.245V49.01c.258-2.4,1.288-4.336,3.649-4.422,2.748-.129,3.693,1.718,3.693,5.281L46.193,61.89a1.4,1.4,0,0,0,1.5,1.245h6.911a1.417,1.417,0,0,0,1.546-1.245V48.281c.344-2.062,1.417-3.607,3.564-3.693,2.661-.129,3.648,1.718,3.648,5.281,0,2.118.051,4.236.051,6.354,0,5.152,4.808,7.428,9.1,7.385,5.581-.086,8.028-3.006,9.015-4.938a6.268,6.268,0,0,0,5.625,4.894,8.514,8.514,0,0,0,8.586-4.421c.257-.43-.129-.687-.515-.687M28.806,51.792c-.523-.274-1.05-.524-1.546-.764-2.532-1.245-7.212-3.305-8.586-3.863-1.331-.6-3.134-1.546-3.263-2.963-.172-1.546,1.631-2.448,3.993-2.189a4.393,4.393,0,0,1,3.821,2.575c.944,2.662,2.576,3.65,4.593,3.778a3.743,3.743,0,0,0,.988-.019Z" fill="#f05d5e"/>
    </g>
  </g>
</svg>
