<?xml version="1.0" encoding="utf-8"?>
<!-- Generator: Adobe Illustrator 26.1.0, SVG Export Plug-In . SVG Version: 6.00 Build 0)  -->
<svg version="1.1" id="Layer_1" xmlns="http://www.w3.org/2000/svg" xmlns:xlink="http://www.w3.org/1999/xlink" x="0px" y="0px"
	 viewBox="0 0 24 24" style="enable-background:new 0 0 24 24;" xml:space="preserve">
<style type="text/css">
	.st0{fill:none;stroke:#FFB870;stroke-width:1.021;stroke-miterlimit:10;}
</style>
<g>
	<path class="st0" d="M12.5,4.4L14.4,1c0.3-0.5,1-0.3,1,0.3l-0.1,4c0,0.4,0.5,0.7,0.8,0.5l3.4-2c0.5-0.3,1,0.3,0.8,0.8l-2,3.4
		c-0.2,0.4,0,0.8,0.5,0.8l4-0.1c0.6,0,0.8,0.8,0.3,1l-3.5,1.9c-0.4,0.2-0.4,0.7,0,1l3.5,1.9c0.5,0.3,0.3,1-0.3,1l-4-0.1
		c-0.4,0-0.7,0.5-0.5,0.8l2,3.4c0.3,0.5-0.3,1-0.8,0.8l-3.4-2c-0.4-0.2-0.8,0-0.8,0.5l0.1,4c0,0.6-0.8,0.8-1,0.3l-1.9-3.5
		c-0.2-0.4-0.7-0.4-1,0L9.6,23c-0.3,0.5-1,0.3-1-0.3l0.1-4c0-0.4-0.5-0.7-0.8-0.5l-3.4,2c-0.5,0.3-1-0.3-0.8-0.8l2-3.4
		c0.2-0.4,0-0.8-0.5-0.8l-4,0.1c-0.6,0-0.8-0.8-0.3-1l3.5-1.9c0.4-0.2,0.4-0.7,0-1L1,9.6c-0.5-0.3-0.3-1,0.3-1l4,0.1
		c0.4,0,0.7-0.5,0.5-0.8l-2-3.4c-0.3-0.5,0.3-1,0.8-0.8l3.4,2c0.4,0.2,0.8,0,0.8-0.5l-0.1-4c0-0.6,0.8-0.8,1-0.3l1.9,3.5
		C11.7,4.8,12.3,4.8,12.5,4.4z"/>
</g>
</svg>
