<?xml version="1.0" encoding="utf-8"?>
<!-- Generator: Adobe Illustrator 26.1.0, SVG Export Plug-In . SVG Version: 6.00 Build 0)  -->
<svg version="1.1" id="Layer_1" xmlns="http://www.w3.org/2000/svg" xmlns:xlink="http://www.w3.org/1999/xlink" x="0px" y="0px"
	 viewBox="0 0 24 24" style="enable-background:new 0 0 24 24;" xml:space="preserve">
<style type="text/css">
	.st0{fill:#FFB870;}
</style>
<path class="st0" d="M14.8,3.2c-0.2,0-0.5,0-0.7,0.1c-1,0.1-1.9,0.4-2.8,0.8c-0.9,0.4-1.7,1-2.5,1.8L8.7,6c-0.5-0.1-1-0.1-1.5-0.1
	c-1,0.1-2,0.3-2.9,0.8c-1.8,0.9-3,2.3-3.7,4.1c-0.3,0.7-0.4,1.4-0.5,2.1c0,0.1,0,0.1,0,0.1v0.8c0,0.2,0.1,0.4,0.1,0.6
	c0.1,0.8,0.3,1.6,0.7,2.3c0.8,1.6,2.1,2.9,3.8,3.6c0.8,0.3,1.6,0.5,2.5,0.6h0.1h8.6c0.2,0,0.4,0,0.5-0.1c1-0.1,1.9-0.4,2.8-0.8
	c1.5-0.7,2.8-1.9,3.6-3.3c0.6-0.9,1-2,1.2-3.1c0-0.3,0.1-0.7,0.1-1c0-0.1,0-0.1,0-0.1v-0.8c0-0.2,0-0.5,0-0.7
	c-0.1-1-0.4-1.9-0.8-2.8c-0.7-1.5-1.9-2.8-3.3-3.6c-0.9-0.6-2-1-3.1-1.2c-0.4-0.1-0.7-0.1-1.1-0.1c-0.1,0-0.1,0-0.1,0L14.8,3.2z
	 M15.2,4.8c2.1,0,3.9,0.8,5.4,2.5c0.8,0.9,1.4,2.1,1.6,3.3c0.1,0.8,0.2,1.5,0.1,2.3c-0.2,1.3-0.7,2.6-1.6,3.6c-1,1.2-2.4,2.1-4,2.5
	c-0.8,0.2-1.7,0.2-2.6,0.1c-1.1-0.1-2.1-0.5-3-1.2c-0.2-0.2-0.5-0.4-0.7-0.6C9.2,16.2,8,15,6.8,13.7c-0.3-0.3-0.3-0.6-0.2-0.9
	c0.2-0.3,0.5-0.5,0.9-0.5c0.2,0,0.4,0.1,0.5,0.3c1.1,1.1,2.2,2.2,3.3,3.3c0.8,0.8,1.9,1.4,3.1,1.5c1.9,0.3,3.6-0.3,4.9-1.8
	c0.7-0.8,1.1-1.7,1.3-2.8c0.3-1.6-0.1-3-1.1-4.3c-0.9-1.1-2-1.8-3.4-2.1c-1.4-0.2-2.8,0-4,0.8H12c-0.4-0.3-0.9-0.6-1.4-0.9l0,0
	C11,6,11.4,5.7,11.9,5.5c0.8-0.4,1.7-0.7,2.6-0.8C14.7,4.9,14.9,4.8,15.2,4.8L15.2,4.8z M7.5,7.5c1.5,0,2.8,0.5,4,1.6
	c0.9,0.8,1.6,1.6,2.5,2.5c0.2,0.2,0.3,0.5,0.2,0.8s-0.4,0.5-0.7,0.5c-0.2,0-0.5-0.1-0.6-0.2c-0.8-0.8-1.6-1.6-2.3-2.4
	c-0.6-0.7-1.4-1-2.3-1.2c-2-0.4-3.9,0.8-4.6,2.6c-0.9,2.4,0.5,5,3,5.6c0.5,0.1,1,0.1,1.5,0.1c0.1,0,0.2,0,0.3,0.1
	c0.5,0.5,1,0.9,1.5,1.4l0.1,0.1C10,19,10,19,10,19H7.6c-2.7,0-5.1-1.9-5.7-4.6c-0.7-2.9,1-5.9,3.9-6.8C6.4,7.6,6.9,7.5,7.5,7.5z"/>
</svg>
