<?xml version="1.0" encoding="utf-8"?>
<!-- Generator: Adobe Illustrator 26.1.0, SVG Export Plug-In . SVG Version: 6.00 Build 0)  -->
<svg version="1.1" id="Capa_1" xmlns="http://www.w3.org/2000/svg" xmlns:xlink="http://www.w3.org/1999/xlink" x="0px" y="0px"
	 viewBox="0 0 24 24" style="enable-background:new 0 0 24 24;" xml:space="preserve">
<style type="text/css">
	.st0{fill:#FFB870;}
</style>
<path class="st0" d="M21.4,0.4H2.6c-0.5,0-0.8,0.4-0.8,0.8l1.7,19.3c0,0.5,0.4,0.9,0.9,1l6.8,1.9c0.4,0.1,1.2,0.1,1.6,0l6.8-1.9
	c0.4-0.1,0.8-0.6,0.9-1l1.7-19.3C22.2,0.8,21.9,0.4,21.4,0.4z M18.2,7.4L18.2,7.4L18.2,7.4l-5.3,2.2c-0.1,0-0.1,0.1-0.1,0.2
	c0,0.1,0.1,0.1,0.2,0.1h4c0.2,0,0.4,0.1,0.6,0.3c0.1,0.2,0.2,0.4,0.2,0.6l-0.6,6.1c0,0.3-0.2,0.6-0.5,0.7L12.2,19
	c-0.2,0.1-0.3,0.1-0.5,0l-4.4-1.5c-0.3-0.1-0.5-0.4-0.5-0.7L6.5,14c0-0.1,0-0.3,0.1-0.4c0.1-0.1,0.2-0.2,0.4-0.2h1.2
	c0.3,0,0.5,0.2,0.5,0.5L9,15.7l3,1.1l3-1.1l0.4-3.5H6.8c-0.3,0-0.5-0.2-0.5-0.5l-0.2-1.5c0-0.2,0.1-0.4,0.3-0.5L12,7.4
	c0.1,0,0.1-0.1,0.1-0.2S12,7.1,12,7.1H6.1C5.9,7.2,5.8,7,5.8,6.9L5.6,5.3c0-0.1,0-0.2,0.1-0.3C5.8,4.9,5.9,4.9,6,4.9h12.1
	c0.1,0,0.2,0,0.3,0.1c0.1,0.1,0.1,0.2,0.1,0.3L18.2,7.4z"/>
</svg>
