<?xml version="1.0" encoding="utf-8"?>
<!-- Generator: Adobe Illustrator 26.1.0, SVG Export Plug-In . SVG Version: 6.00 Build 0)  -->
<svg version="1.1" id="Layer_1" xmlns="http://www.w3.org/2000/svg" xmlns:xlink="http://www.w3.org/1999/xlink" x="0px" y="0px"
	 viewBox="0 0 24 24" style="enable-background:new 0 0 24 24;" xml:space="preserve">
<style type="text/css">
	.st0{fill:#FFB870;}
</style>
<g>
	<path class="st0" d="M23.5,10.9L13.1,0.5c-0.6-0.6-1.6-0.6-2.2,0L8.7,2.7l2.7,2.7c0.6-0.2,1.4-0.1,1.9,0.4s0.7,1.3,0.4,1.9l2.6,2.6
		c0.6-0.2,1.4-0.1,1.9,0.4c0.7,0.7,0.7,1.9,0,2.6s-1.9,0.7-2.6,0c-0.5-0.5-0.7-1.3-0.4-2L12.9,9v6.5c0.2,0.1,0.3,0.2,0.5,0.3
		c0.7,0.7,0.7,1.9,0,2.6c-0.7,0.7-1.9,0.7-2.6,0c-0.7-0.7-0.7-1.9,0-2.6c0.2-0.2,0.4-0.3,0.6-0.4V8.8c-0.2-0.1-0.4-0.2-0.6-0.4
		c-0.5-0.5-0.7-1.3-0.4-2L7.7,3.7l-7.2,7.2c-0.6,0.6-0.6,1.6,0,2.2l10.4,10.4c0.6,0.6,1.6,0.6,2.2,0l10.4-10.4
		C24.1,12.5,24.1,11.5,23.5,10.9z"/>
</g>
</svg>
