<?xml version="1.0" encoding="utf-8"?>
<!-- Generator: Adobe Illustrator 26.1.0, SVG Export Plug-In . SVG Version: 6.00 Build 0)  -->
<svg version="1.1" id="Capa_1" xmlns="http://www.w3.org/2000/svg" xmlns:xlink="http://www.w3.org/1999/xlink" x="0px" y="0px"
	 viewBox="0 0 24 24" style="enable-background:new 0 0 24 24;" xml:space="preserve">
<style type="text/css">
	.st0{fill:#FFB870;}
</style>
<g>
	<g>
		<path class="st0" d="M3.9,21.4l7.9,2.2c0.1,0,0.4,0,0.5,0l7.9-2.2c0.1,0,0.3-0.2,0.3-0.3l1.8-20.4c0-0.1-0.1-0.3-0.2-0.3H2
			c-0.1,0-0.3,0.1-0.2,0.3l1.8,20.4C3.6,21.2,3.7,21.4,3.9,21.4z M5.8,4.6h12.4c0.1,0,0.3,0.1,0.2,0.3l-0.2,2c0,0.1-0.1,0.3-0.3,0.3
			H8.7c-0.1,0-0.3,0.1-0.2,0.3l0.2,2.1c0,0.1,0.1,0.3,0.3,0.3h8.9c0.1,0,0.3,0.1,0.2,0.3l-0.7,7.4c0,0.1-0.1,0.3-0.3,0.3l-4.7,1.3
			c-0.1,0-0.3,0.1-0.3,0.1l0,0c0,0-0.1,0-0.3-0.1L7,17.9c-0.1,0-0.3-0.2-0.3-0.3L6.4,14c0-0.1,0.1-0.3,0.2-0.3h2
			c0.1,0,0.3,0.1,0.3,0.3L9,15.5c0,0.1,0.1,0.3,0.3,0.3l2.3,0.6c0.1,0,0.4,0,0.5,0l2.4-0.6c0.1,0,0.3-0.2,0.3-0.3l0.3-2.8
			c0-0.1-0.1-0.3-0.2-0.3H6.5c-0.1,0-0.3-0.1-0.3-0.3L5.6,4.9C5.6,4.8,5.7,4.6,5.8,4.6z"/>
	</g>
</g>
</svg>
