<?xml version="1.0" encoding="utf-8"?>
<!-- Generator: Adobe Illustrator 26.1.0, SVG Export Plug-In . SVG Version: 6.00 Build 0)  -->
<svg version="1.1" id="Layer_1" xmlns="http://www.w3.org/2000/svg" xmlns:xlink="http://www.w3.org/1999/xlink" x="0px" y="0px"
	 viewBox="0 0 24 24" style="enable-background:new 0 0 24 24;" xml:space="preserve">
<style type="text/css">
	.st0{fill:#FFB870;}
</style>
<path class="st0" d="M5.2,3.2h4v11.2c0,5-2.4,6.8-6.3,6.8C2,21.1,0.8,21,0,20.7l0.4-3.2c0.5,0.2,1.3,0.3,2,0.3
	c1.7,0,2.7-0.8,2.7-3.5C5.2,14.3,5.2,3.2,5.2,3.2z M12.7,16.7c1,0.5,2.7,1.1,4.4,1.1c1.8,0,2.8-0.8,2.8-1.9s-0.8-1.7-3-2.5
	c-2.9-1-4.9-2.7-4.9-5.3c0-3,2.5-5.3,6.7-5.3c2,0,3.5,0.4,4.5,0.9L22.4,7c-0.7-0.3-2-0.8-3.7-0.8S16.1,7,16.1,7.9
	c0,1.1,1,1.6,3.3,2.5c3.1,1.2,4.6,2.8,4.6,5.3c0,3-2.3,5.5-7.1,5.5c-2,0-4-0.5-5-1.1L12.7,16.7L12.7,16.7z"/>
</svg>
