<?xml version="1.0" encoding="utf-8"?>
<!-- Generator: Adobe Illustrator 26.1.0, SVG Export Plug-In . SVG Version: 6.00 Build 0)  -->
<svg version="1.1" id="Layer_1" xmlns="http://www.w3.org/2000/svg" xmlns:xlink="http://www.w3.org/1999/xlink" x="0px" y="0px"
	 viewBox="0 0 24 24" style="enable-background:new 0 0 24 24;" xml:space="preserve">
<style type="text/css">
	.st0{fill:#FFB870;}
</style>
<path class="st0" d="M12,9.9c-1.2,0-2.1,1-2.1,2.1s1,2.1,2.1,2.1s2.1-1,2.1-2.1S13.2,9.9,12,9.9z M6,16.2l-0.5-0.1
	C2,15.2,0,13.7,0,12s2-3.2,5.5-4.1L6,7.8l0.1,0.5c0.4,1.2,0.8,2.4,1.4,3.6L7.6,12l-0.1,0.2c-0.5,1.1-1,2.3-1.4,3.6L6,16.2z M5.4,9
	c-2.7,0.7-4.3,1.9-4.3,3s1.6,2.3,4.3,3c0.3-1,0.7-2,1.2-3C6.1,11,5.7,10,5.4,9z M18,16.2l-0.1-0.5c-0.4-1.2-0.8-2.4-1.4-3.6L16.4,12
	l0.1-0.2c0.5-1.1,1-2.3,1.4-3.6L18,7.8l0.5,0.1C22,8.8,24,10.3,24,12s-2,3.2-5.5,4.1L18,16.2z M17.5,12c0.5,1,0.9,2,1.2,3
	c2.7-0.7,4.3-1.9,4.3-3s-1.6-2.3-4.3-3C18.3,10,17.9,11,17.5,12z M5.3,9L5.2,8.5C4.2,5,4.5,2.5,6,1.7c1.5-0.9,3.8,0.2,6.3,2.7
	l0.3,0.3L12.3,5c-0.8,1-1.6,2-2.4,3L9.8,8.2H9.6C8.3,8.3,7,8.5,5.8,8.8L5.3,9z M7.2,2.4c-0.2,0-0.5,0-0.7,0.1C5.5,3.1,5.4,5.1,6,7.8
	c1.1-0.2,2.1-0.4,3.2-0.5c0.6-0.9,1.3-1.7,2-2.5C9.8,3.2,8.3,2.4,7.2,2.4L7.2,2.4z M16.8,22.6L16.8,22.6c-1.4,0-3.2-1.1-5.1-3
	l-0.3-0.3l0.3-0.3c0.9-0.9,1.7-1.9,2.4-3l0.1-0.2h0.2c1.3-0.1,2.5-0.3,3.8-0.6l0.5-0.1l0.1,0.5c1,3.5,0.7,5.9-0.8,6.8
	C17.6,22.5,17.2,22.6,16.8,22.6L16.8,22.6z M12.7,19.3c1.6,1.5,3,2.4,4.1,2.4l0,0c0.3,0,0.5-0.1,0.7-0.2c1-0.6,1.2-2.6,0.5-5.2
	c-1.1,0.2-2.1,0.4-3.2,0.5C14.1,17.6,13.4,18.5,12.7,19.3L12.7,19.3z M18.7,9l-0.5-0.1c-1.2-0.3-2.5-0.5-3.8-0.6h-0.2L14.1,8
	c-0.7-1-1.5-2-2.4-3l-0.3-0.3l0.3-0.3c2.5-2.5,4.8-3.6,6.3-2.7s1.8,3.4,0.8,6.8L18.7,9z M14.7,7.3C15.9,7.4,17,7.5,18,7.8
	c0.7-2.7,0.5-4.7-0.5-5.2c-1-0.6-2.8,0.3-4.8,2.2C13.4,5.5,14.1,6.4,14.7,7.3L14.7,7.3z M7.2,22.6c-0.4,0-0.8-0.1-1.2-0.3
	c-1.5-0.9-1.8-3.3-0.8-6.8L5.3,15l0.5,0.1c1.2,0.3,2.4,0.5,3.8,0.6h0.2L9.9,16c0.7,1,1.5,2,2.4,3l0.3,0.3l-0.3,0.3
	C10.5,21.6,8.6,22.6,7.2,22.6L7.2,22.6z M6,16.2c-0.7,2.7-0.5,4.7,0.5,5.2c1,0.6,2.8-0.3,4.8-2.2c-0.7-0.8-1.4-1.6-2-2.5
	C8.2,16.6,7.1,16.5,6,16.2L6,16.2z M12,16.9c-0.8,0-1.7,0-2.5-0.1H9.3l-0.1-0.2c-0.5-0.7-0.9-1.4-1.3-2.1C7.4,13.7,7,13,6.6,12.2
	L6.5,12l0.1-0.2C7,11,7.4,10.3,7.8,9.6c0.4-0.7,0.9-1.4,1.3-2.1l0.1-0.2h0.2c1.7-0.1,3.3-0.1,5,0h0.2l0.1,0.2c1,1.4,1.8,2.8,2.5,4.3
	l0.1,0.2l-0.1,0.2c-0.7,1.5-1.5,3-2.5,4.3l-0.1,0.2h-0.2C13.7,16.8,12.8,16.9,12,16.9z M9.8,15.8c1.5,0.1,2.9,0.1,4.4,0
	c0.8-1.2,1.6-2.5,2.2-3.8c-0.6-1.3-1.4-2.6-2.2-3.8c-1.5-0.1-2.9-0.1-4.4,0C9,9.4,8.3,10.7,7.6,12C8.3,13.3,9,14.6,9.8,15.8z"/>
</svg>
